<svg width="300" height="300" viewBox="0 0 300 300" fill="none" xmlns="http://www.w3.org/2000/svg">
<mask id="mask0" mask-type="alpha" maskUnits="userSpaceOnUse" x="0" y="0" width="300" height="300">
<rect width="300" height="300" rx="60" fill="white"/>
<rect width="300" height="300" rx="60" fill="#DA6C1C"/>
</mask>
<g mask="url(#mask0)">
<rect width="300" height="300" rx="60" fill="white"/>
<rect width="300" height="300" rx="60" fill="url(#paint0_linear)"/>
<path opacity="0.5" d="M190.92 78H97.8V246H123.24V184.08H190.92C200.28 184.08 208.2 176.88 208.2 168.24V93.84C208.2 85.2 200.28 78 190.92 78ZM182.76 154.8C182.76 157.44 180.36 159.6 177.96 159.6H123.24V102.48H177.96C180.36 102.48 182.76 104.64 182.76 107.28V154.8Z" fill="black"/>
</g>
<defs>
<linearGradient id="paint0_linear" x1="15" y1="17" x2="279" y2="282" gradientUnits="userSpaceOnUse">
<stop offset="0.510417" stop-color="#1663FA"/>
<stop offset="0.510517" stop-color="#0E52D7"/>
</linearGradient>
</defs>
</svg>
